<?xml version="1.0" encoding="UTF-8" standalone="no"?>
<!-- Created with Inkscape (http://www.inkscape.org/) -->

<svg
   width="138.80602mm"
   height="112.58665mm"
   viewBox="0 0 138.80601 112.58666"
   version="1.1"
   id="svg1"
   xml:space="preserve"
   inkscape:export-filename="7081833_3512713.svg"
   inkscape:export-xdpi="96"
   inkscape:export-ydpi="96"
   xmlns:inkscape="http://www.inkscape.org/namespaces/inkscape"
   xmlns:sodipodi="http://sodipodi.sourceforge.net/DTD/sodipodi-0.dtd"
   xmlns="http://www.w3.org/2000/svg"
   xmlns:svg="http://www.w3.org/2000/svg"><sodipodi:namedview
     id="namedview1"
     pagecolor="#505050"
     bordercolor="#eeeeee"
     borderopacity="1"
     inkscape:showpageshadow="0"
     inkscape:pageopacity="0"
     inkscape:pagecheckerboard="0"
     inkscape:deskcolor="#505050"
     inkscape:document-units="mm" /><defs
     id="defs1" /><g
     inkscape:label="Camada 1"
     inkscape:groupmode="layer"
     id="layer1"
     transform="translate(-26.365471,-92.490889)"><g
       id="g2"
       transform="matrix(0.26458333,0,0,0.26458333,-3.4502873,78.938804)"><g
         id="OBJECTS">
	<g
   id="g10">
		<g
   id="g5">
			<polygon
   style="fill:#ffffff"
   points="441.156,87.4 492.43,87.4 492.43,129.614 481.816,119.013 441.156,119.013 "
   id="polygon1" />
			<g
   id="g4">
				
					<line
   style="fill:none;stroke:#647bf4;stroke-linecap:round;stroke-linejoin:round;stroke-miterlimit:10"
   x1="454.98401"
   y1="95.957001"
   x2="478.60199"
   y2="95.957001"
   id="line1" />
				
					<line
   style="opacity:0.25;fill:none;stroke:#647bf4;stroke-linecap:round;stroke-linejoin:round;stroke-miterlimit:10"
   x1="458.89401"
   y1="100.809"
   x2="478.60199"
   y2="100.809"
   id="line2" />
				
					<line
   style="opacity:0.25;fill:none;stroke:#647bf4;stroke-linecap:round;stroke-linejoin:round;stroke-miterlimit:10"
   x1="454.98401"
   y1="105.66"
   x2="478.60199"
   y2="105.66"
   id="line3" />
				
					<line
   style="opacity:0.25;fill:none;stroke:#647bf4;stroke-linecap:round;stroke-linejoin:round;stroke-miterlimit:10"
   x1="462.043"
   y1="110.511"
   x2="478.60199"
   y2="110.511"
   id="line4" />
			</g>
		</g>
		<g
   id="g9">
			<polygon
   style="fill:#ffffff"
   points="306.622,111.927 255.348,111.927 255.348,154.141 265.962,143.54 306.622,143.54 "
   id="polygon5" />
			<g
   id="g8">
				
					<line
   style="fill:none;stroke:#ebaf65;stroke-linecap:round;stroke-linejoin:round;stroke-miterlimit:10"
   x1="292.79401"
   y1="120.485"
   x2="269.177"
   y2="120.485"
   id="line5" />
				
					<line
   style="opacity:0.25;fill:none;stroke:#647bf4;stroke-linecap:round;stroke-linejoin:round;stroke-miterlimit:10"
   x1="288.884"
   y1="125.336"
   x2="269.177"
   y2="125.336"
   id="line6" />
				
					<line
   style="opacity:0.25;fill:none;stroke:#647bf4;stroke-linecap:round;stroke-linejoin:round;stroke-miterlimit:10"
   x1="292.79401"
   y1="130.187"
   x2="269.177"
   y2="130.187"
   id="line7" />
				
					<line
   style="opacity:0.25;fill:none;stroke:#647bf4;stroke-linecap:round;stroke-linejoin:round;stroke-miterlimit:10"
   x1="285.73599"
   y1="135.03799"
   x2="269.177"
   y2="135.03799"
   id="line8" />
			</g>
		</g>
	</g>
	<g
   id="g147">
		<g
   id="g20">
			<linearGradient
   id="SVGID_1_"
   gradientUnits="userSpaceOnUse"
   x1="-662.51367"
   y1="-1557.8958"
   x2="5195.4258"
   y2="8397.835">
				<stop
   offset="2.700000e-07"
   style="stop-color:#96CEFC"
   id="stop10" />
				<stop
   offset="1"
   style="stop-color:#263DEA"
   id="stop11" />
			</linearGradient>
			<path
   id="path11"
   style="opacity:0.15;fill:url(#SVGID_1_)"
   d="m 421.00394,110.88064 c -19.45128,-0.21771 -40.61606,3.61527 -66.6836,17.2832 -58.72894,30.79097 -141.08706,-47.275993 -213.95898,7.25195 -72.87193,54.51695 63.13298,193.095 124.66992,235.50196 16.27798,11.21099 2.79662,17.88375 -15.69336,4.00976 -18.47898,-13.87398 -21.68046,-25.90588 -29.68945,-21.96289 -8.00999,3.943 19.72654,46.20505 63.3125,61.70704 43.58595,15.50198 33.08283,3.89766 20.71484,-6.11133 -12.35699,-10.00899 -17.58166,-28.11779 -7.76367,-23.4668 2.607,1.236 8.15656,4.25769 16.43555,8.05469 -10.10978,-26.83672 -20.43361,-61.63794 -8.67188,-72.67969 0.75544,-0.70844 1.51521,-1.08011 2.27539,-1.15234 11.40236,-1.08348 23.03239,65.4716 25.71875,81.81836 h 0.0117 c -1.92119,-13.34796 -7.41444,-59.78315 8.21094,-67.00586 0.952,-0.44019 1.81969,-0.62092 2.60937,-0.57032 11.84511,0.75902 6.12902,53.83698 3.73829,72.55274 0.292,0.09 0.59471,0.18148 0.88671,0.27148 3.73259,-12.25368 13.04198,-38.49748 24.48633,-38.72656 0.36918,-0.007 0.74174,0.0125 1.11524,0.0606 10.82898,1.393 -1.57279,27.47791 -10.00977,43.04687 21.21998,5.359 46.97908,9.44839 76.74805,9.65039 12.80599,0.09 26.37617,-1.30305 40.16016,-4.12304 -11.42498,-33.49894 -1.32618,-65.39063 -1.32618,-65.39063 0,0 11.38066,20.32232 13.22266,41.23828 0,-72.87184 14.00781,-94.89062 14.00781,-94.89062 0,0 12.89764,60.37004 5.05664,110.46094 14.96298,-70.01886 34.6211,-73.58008 34.6211,-73.58008 0,0 4.96413,29.51128 -9.96485,63.32422 54.43795,-26.29798 100.49544,-74.31087 102.02344,-139.3418 2.404,-102.6069 -96.49726,-136.12785 -142.94922,-138.58985 -26.12866,-1.38375 -48.30567,-8.36071 -73.31445,-8.64062 z m 114.24023,286.57227 c -4.03849,1.95449 -8.12195,3.78779 -12.23632,5.49804 4.11393,-1.71021 8.19783,-3.54355 12.23632,-5.49804 z m -12.23632,5.49804 c -4.11437,1.71025 -8.25793,3.29732 -12.41993,4.75782 4.162,-1.4605 8.30599,-3.0476 12.41993,-4.75782 z m -12.41993,4.75782 c -10.28999,3.62899 -20.69294,6.50403 -30.96093,8.58203 10.26798,-2.078 20.67095,-4.95305 30.96093,-8.58203 z m -147.86914,3.05468 c -5.50499,-1.382 -10.7058,-2.86486 -15.5918,-4.38086 4.886,1.516 10.08682,2.99886 15.5918,4.38086 z m -16.47851,-4.65234 c -5.224,-1.629 -10.0766,-3.31357 -14.5586,-4.97656 7e-5,5e-4 -7e-5,0.001 0,0.002 4.482,1.663 9.3346,3.34756 14.5586,4.97656 6e-5,-5.3e-4 -7e-5,-0.001 0,-0.002 z m -14.57032,-4.97656 c -7.53799,-2.797 -13.99727,-5.56033 -19.32226,-7.98633 2.1e-4,5.6e-4 -2.1e-4,0.001 0,0.002 5.32498,2.426 11.78428,5.18933 19.32226,7.98633 -7e-5,-4.7e-4 8e-5,-10e-4 0,-0.002 z" />
			
				<linearGradient
   id="SVGID_00000075164916812341084590000003895471275645770387_"
   gradientUnits="userSpaceOnUse"
   x1="126.1423"
   y1="244.136"
   x2="285.90341"
   y2="623.71973">
				<stop
   offset="2.700000e-07"
   style="stop-color:#96CEFC"
   id="stop12" />
				<stop
   offset="1"
   style="stop-color:#263DEA"
   id="stop13" />
			</linearGradient>
			<path
   style="opacity:0.15;fill:url(#SVGID_00000075164916812341084590000003895471275645770387_)"
   d="m 124.43,248.448 c 15.904,26.607 65.666,57.321 60.061,73.659 -5.606,16.338 -44.445,26.799 -60.061,-15.469 -15.616,-42.267 -15.692,-84.442 0,-58.19 z"
   id="path13" />
			
				<linearGradient
   id="SVGID_00000152244394714254875520000011457470669461509269_"
   gradientUnits="userSpaceOnUse"
   x1="523.16779"
   y1="119.5243"
   x2="634.31842"
   y2="119.5243">
				<stop
   offset="2.700000e-07"
   style="stop-color:#96CEFC"
   id="stop14" />
				<stop
   offset="1"
   style="stop-color:#263DEA"
   id="stop15" />
			</linearGradient>
			<path
   style="opacity:0.15;fill:url(#SVGID_00000152244394714254875520000011457470669461509269_)"
   d="m 579.38,119.317 c -34.618,-10.383 -58.118,-5.498 -56.09,-20.837 2.028,-15.339 70.854,-7.325 94.7,14.494 23.846,21.819 20.399,46.9 -2.703,29.955 -23.102,-16.945 -31.28,-22.224 -35.907,-23.612 z"
   id="path15" />
			
			
			
			
			
		</g>
		<g
   id="g146">
			<g
   id="g65">
				<g
   id="g60">
					
						<linearGradient
   id="SVGID_00000054264345522581490310000010109471667457743005_"
   gradientUnits="userSpaceOnUse"
   x1="196.22839"
   y1="427.1051"
   x2="206.8392"
   y2="366.44379">
						<stop
   offset="4.100000e-07"
   style="stop-color:#F0C9CF"
   id="stop20" />
						<stop
   offset="1"
   style="stop-color:#D683A7"
   id="stop21" />
					</linearGradient>
					<path
   style="fill:url(#SVGID_00000054264345522581490310000010109471667457743005_)"
   d="m 211.731,404.736 c -3.28,4.628 -11.267,10.211 -13.862,9.93 -2.662,-0.281 -4.887,-4.707 -10.2,-4.887 4.842,-5.426 9.549,-11.368 9.942,-13.739 l 14.076,0.404 c 0.067,3.518 0.246,6.203 0.044,8.292 z"
   id="path21" />
					
						<linearGradient
   id="SVGID_00000139988172665054819750000018249721077977957549_"
   gradientUnits="userSpaceOnUse"
   x1="183.81779"
   y1="358.76819"
   x2="229.1969"
   y2="265.07361">
						<stop
   offset="4.100000e-07"
   style="stop-color:#F0C9CF"
   id="stop22" />
						<stop
   offset="1"
   style="stop-color:#D683A7"
   id="stop23" />
					</linearGradient>
					<path
   style="fill:url(#SVGID_00000139988172665054819750000018249721077977957549_)"
   d="m 195.836,331.212 c 0.292,2.797 2.045,6.212 3.808,9.009 1.236,2 2.494,3.685 3.202,4.606 1.696,2.202 -1.898,6.605 -7.01,10.413 -5.1,3.797 -14.413,15.109 -21.625,19.614 -7.201,4.505 -9.301,0.404 -6.302,-3.303 1.629,-2.011 6.089,-10.908 9.605,-19.76 2.954,-7.403 5.257,-14.783 4.707,-18.075"
   id="path23" />
					<path
   style="fill:#441c3a"
   d="m 338.547,116.82 -0.011,0.011 c -0.944,6.212 -7.066,13.581 -21.973,10.683 -21.119,-4.111 -30.039,0.64 -30.039,0.64 l -14.413,-12.256 c 0,0 -2.999,-11.413 -4.797,-13.918 -1.876,-2.618 -3.55,-5.28 -4.943,-7.908 -4.673,-8.807 -7.735,-17.452 -3.437,-22.019 4.271,-4.538 8.863,-3.302 8.863,-3.302 0,0 2.516,-10.818 17.524,-7.01 15.019,3.808 9.548,17.738 13.155,22.647 3.606,4.909 14.076,-3.123 19.086,3.482 4.999,6.605 -1.606,17.21 4.302,21.22 5.909,3.999 11.514,-3.202 15.412,1.404 1.147,1.36 1.664,3.742 1.271,6.326 z"
   id="path24" />
					<path
   style="opacity:0.25"
   d="m 338.536,116.831 c -0.944,6.212 -7.066,13.581 -21.973,10.683 -21.119,-4.111 -30.039,0.64 -30.039,0.64 l -14.413,-12.256 c 0,0 -2.999,-11.413 -4.797,-13.918 -1.876,-2.618 -3.55,-5.28 -4.943,-7.908 l 3.64,-2.651 7.807,-3.415 24.017,-3.336 c -4.932,0.595 -3.64,3.46 -3.64,3.46 0,0 1.64,3.033 2.112,10.2 0.461,7.156 12.548,5.684 18.479,14.435 5.944,8.739 19.009,15.344 23.75,4.066 z"
   id="path25" />
					<path
   style="fill:#2b377c"
   d="m 275.616,188.591 -3.325,6.156 -9.717,18.007 -14.716,27.264 -3.089,1.955 -17.008,10.784 -24.478,15.536 c 2.393,13.862 -5.605,60.347 -4.808,62.751 0.798,2.404 -9.346,2.404 -17.614,5.347 0.337,-4.482 -3.876,-41.553 -6.897,-67.3 -1.775,-15.008 5.583,-29.6 18.693,-37.104 21.714,-12.436 52.888,-30.915 59.864,-38.43 0.55,-0.607 0.944,-1.135 1.18,-1.584 l 21.007,-3.247 z"
   id="path26" />
					<path
   style="opacity:0.25"
   d="m 262.642,210.182 -0.067,2.572 -14.716,27.264 -3.089,1.955 -17.008,10.784 c 8.481,-20.198 27.308,-31.825 34.88,-42.575 z"
   id="path27" />
					<path
   style="fill:#2b377c"
   d="m 303.644,205.183 c -0.056,1.573 -0.258,3.247 -0.584,4.999 -6.122,33.442 -57.336,96.845 -57.336,96.845 -4.808,33.633 -28.297,90.217 -30.971,91.992 -2.662,1.764 -13.615,4.898 -19.749,-1.685 6.942,-14.064 17.356,-82.836 20.557,-92.98 3.078,-9.773 24.984,-54.427 29.207,-62.38 0.168,-0.303 0.303,-0.562 0.416,-0.753 2.179,-3.864 18.086,-32.151 26.23,-46.631 1.348,-2.393 2.471,-4.404 3.292,-5.864 0.944,-1.674 1.483,-2.629 1.483,-2.629 0,0 28.646,-12.536 27.455,19.086 z"
   id="path28" />
					<path
   style="opacity:0.25"
   d="m 303.644,205.183 c -0.056,1.573 -0.258,3.247 -0.584,4.999 -7.324,-8.818 -19.423,-13.402 -30.769,-15.435 -0.292,-0.056 -0.584,-0.101 -0.876,-0.157 -7.1,-1.202 -13.862,-1.404 -18.895,-1.033 0.55,-0.607 0.944,-1.135 1.18,-1.584 l 21.007,-3.247 c 0.944,-1.674 1.483,-2.629 1.483,-2.629 0,0 28.645,-12.536 27.454,19.086 z"
   id="path29" />
					
						<linearGradient
   id="SVGID_00000057128065711962175580000012154637879212436136_"
   gradientUnits="userSpaceOnUse"
   x1="283.19489"
   y1="85.414902"
   x2="290.13531"
   y2="292.5575">
						<stop
   offset="0.014"
   style="stop-color:#ECB6A2"
   id="stop29" />
						<stop
   offset="0.9911"
   style="stop-color:#D4506D"
   id="stop30" />
					</linearGradient>
					<path
   style="fill:url(#SVGID_00000057128065711962175580000012154637879212436136_)"
   d="m 333.582,151.228 c -3.707,0.438 -8.751,4.302 -12.076,7.201 -0.382,0.337 -0.73,0.652 -1.056,0.944 -1.326,1.202 -2.202,2.078 -2.37,2.247 l -0.022,0.022 c -0.09,-0.528 -0.348,-1.314 -0.708,-2.269 -0.112,-0.292 -0.236,-0.618 -0.371,-0.944 -1.157,-2.865 -3.033,-6.763 -4.572,-9.886 -0.169,-0.326 -0.326,-0.64 -0.472,-0.944 -1.247,-2.483 -2.179,-4.28 -2.179,-4.28 0,0 -0.517,1.685 -1.191,4.28 -0.09,0.303 -0.168,0.618 -0.247,0.944 -0.708,2.752 -1.539,6.291 -2.168,9.886 -0.056,0.314 -0.101,0.629 -0.157,0.944 -0.348,2.112 -0.618,4.213 -0.741,6.178 -0.067,1.011 -0.135,2.269 -0.213,3.707 -0.011,0.303 -0.022,0.618 -0.045,0.944 -0.135,2.853 -0.292,6.291 -0.427,9.886 -0.022,0.314 -0.034,0.629 -0.045,0.944 -0.135,3.303 -0.258,6.718 -0.382,9.885 -0.011,0.326 -0.022,0.64 -0.034,0.944 -0.27,7.414 -0.461,13.323 -0.461,13.323 0,0 -1.73,-4.134 -9.998,-7.852 -2.797,-1.258 -6.336,-2.471 -10.818,-3.46 -4.718,-1.034 -8.987,-1.663 -12.716,-2.011 -8.156,-0.764 -13.705,-0.247 -15.648,0 -0.505,0.067 -0.764,0.112 -0.764,0.112 0,0 0.011,-0.034 0.022,-0.112 0.034,-0.157 0.09,-0.483 0.18,-0.944 0.337,-1.775 1.034,-5.572 1.651,-9.885 0.056,-0.315 0.101,-0.629 0.146,-0.944 0.449,-3.292 0.854,-6.808 1.011,-9.886 0.022,-0.326 0.034,-0.64 0.045,-0.944 0.079,-2.19 0.011,-4.111 -0.258,-5.516 -0.326,-1.662 -0.618,-3.123 -0.876,-4.37 -0.067,-0.337 -0.135,-0.652 -0.191,-0.944 -0.73,-3.527 -1.135,-5.19 -1.135,-5.19 l -3.482,5.19 -0.64,0.944 -0.18,0.27 c -0.034,-0.09 -0.056,-0.18 -0.09,-0.27 -0.101,-0.326 -0.213,-0.64 -0.314,-0.944 -0.809,-2.224 -1.775,-4.033 -2.808,-5.471 -1.517,-2.146 -3.19,-3.527 -4.707,-4.415 -0.696,-0.416 -1.359,-0.719 -1.955,-0.944 -1.786,-0.674 -3.044,-0.674 -3.044,-0.674 l 5.729,-9.212 0.584,-0.944 6.156,-9.885 0.584,-0.944 1.696,-2.73 c 1.752,-2.808 3.999,-5.235 6.628,-7.156 0.438,-0.337 0.887,-0.652 1.348,-0.944 2.022,-1.303 4.235,-2.337 6.583,-3.044 l 10.447,-3.145 0.786,-0.236 12.638,-1.449 c 1.73,-0.202 3.482,0.011 5.111,0.607 l 10.616,3.898 c 2.258,0.831 4.381,1.966 6.302,3.37 0.416,0.292 0.82,0.607 1.213,0.944 2.808,2.292 5.122,5.167 6.763,8.47 l 1.18,2.359 4.931,9.885 0.472,0.944 4.932,9.885 0.472,0.944 z"
   id="path30" />
					<g
   id="g39">
						<path
   style="opacity:0.25;fill:#ffffff"
   d="m 313.496,116.056 h -55.044 c 0.438,-0.337 0.887,-0.652 1.348,-0.944 h 52.483 c 0.415,0.292 0.82,0.607 1.213,0.944 z"
   id="path31" />
						<polygon
   style="opacity:0.25;fill:#ffffff"
   points="249.543,126.885 250.128,125.941 320.966,125.941 321.438,126.885 "
   id="polygon31" />
						<polygon
   style="opacity:0.25;fill:#ffffff"
   points="242.803,137.714 243.387,136.77 326.37,136.77 326.841,137.714 "
   id="polygon32" />
						<path
   style="opacity:0.25;fill:#ffffff"
   d="m 308.564,147.6 c -0.09,0.303 -0.168,0.618 -0.247,0.944 h -66.244 c -0.696,-0.416 -1.359,-0.719 -1.955,-0.944 z"
   id="path32" />
						<path
   style="opacity:0.25;fill:#ffffff"
   d="m 332.245,148.543 h -19.839 c -0.169,-0.326 -0.326,-0.64 -0.472,-0.944 h 19.839 z"
   id="path33" />
						<path
   style="opacity:0.25;fill:#ffffff"
   d="m 249.588,158.429 h 1.224 l -0.64,0.944 h -0.27 c -0.1,-0.326 -0.213,-0.641 -0.314,-0.944 z"
   id="path34" />
						<path
   style="opacity:0.25;fill:#ffffff"
   d="m 306.149,158.429 c -0.056,0.314 -0.101,0.629 -0.157,0.944 h -50.371 c -0.067,-0.337 -0.135,-0.652 -0.191,-0.944 z"
   id="path35" />
						<path
   style="opacity:0.25;fill:#ffffff"
   d="m 321.506,158.429 c -0.382,0.337 -0.73,0.652 -1.056,0.944 h -3.1 c -0.112,-0.292 -0.236,-0.618 -0.371,-0.944 z"
   id="path36" />
						<path
   style="opacity:0.25;fill:#ffffff"
   d="m 305.037,169.258 c -0.011,0.303 -0.022,0.618 -0.045,0.944 H 256.71 c 0.022,-0.326 0.034,-0.64 0.045,-0.944 z"
   id="path37" />
						<path
   style="opacity:0.25;fill:#ffffff"
   d="m 304.565,180.087 c -0.022,0.314 -0.034,0.629 -0.045,0.944 h -48.967 c 0.056,-0.315 0.101,-0.629 0.146,-0.944 z"
   id="path38" />
						<path
   style="opacity:0.25;fill:#ffffff"
   d="m 304.138,190.916 c -0.011,0.326 -0.022,0.64 -0.034,0.944 h -50.383 c 0.034,-0.157 0.09,-0.483 0.18,-0.944 z"
   id="path39" />
					</g>
					<path
   style="fill:#ffffff"
   d="m 295.365,107.844 c -1.033,5.392 -5.482,13.514 -13.739,12.054 -8.616,-1.516 -6.381,-7.953 -4.797,-10.975 l 0.786,-0.236 12.639,-1.451 c 1.729,-0.199 3.479,0.01 5.111,0.608 z"
   id="path40" />
					
						<linearGradient
   id="SVGID_00000057828419579197116920000011922988118571185843_"
   gradientUnits="userSpaceOnUse"
   x1="280.89551"
   y1="109.9882"
   x2="327.6839"
   y2="29.4081">
						<stop
   offset="4.100000e-07"
   style="stop-color:#F0C9CF"
   id="stop40" />
						<stop
   offset="1"
   style="stop-color:#D683A7"
   id="stop41" />
					</linearGradient>
					<path
   style="fill:url(#SVGID_00000057828419579197116920000011922988118571185843_)"
   d="m 291.66,108.633 c -0.637,3.957 -8.272,8.721 -10.991,7.599 -2.719,-1.122 -1.597,-3.921 -1.597,-3.921 0,0 -0.09,-1.166 -0.314,-2.808 -0.099,-0.718 -0.224,-1.525 -0.368,-2.36 -0.296,-1.687 -0.709,-3.49 -1.256,-4.935 -0.269,-0.745 -0.592,-1.391 -0.942,-1.884 l 3.759,-2.997 8.272,-6.594 c 0.764,1.607 1.804,11.109 3.437,17.9 z"
   id="path41" />
					
						<linearGradient
   id="SVGID_00000150097192938878825660000012360613641547278747_"
   gradientUnits="userSpaceOnUse"
   x1="276.8685"
   y1="91.910896"
   x2="283.68411"
   y2="102.5602">
						<stop
   offset="4.100000e-07"
   style="stop-color:#F0C9CF"
   id="stop42" />
						<stop
   offset="1"
   style="stop-color:#D683A7"
   id="stop43" />
					</linearGradient>
					<path
   style="fill:url(#SVGID_00000150097192938878825660000012360613641547278747_)"
   d="m 288.798,95.911 c 0,0 -3.84,10.452 -10.04,13.592 -0.099,-0.718 -0.224,-1.525 -0.368,-2.36 -0.296,-1.687 -0.709,-3.49 -1.256,-4.935 l 3.113,-2.476 z"
   id="path43" />
					
						<linearGradient
   id="SVGID_00000100343530472228577490000009390337550220086193_"
   gradientUnits="userSpaceOnUse"
   x1="279.20511"
   y1="98.565903"
   x2="284.9614"
   y2="40.3629">
						<stop
   offset="4.100000e-07"
   style="stop-color:#F0C9CF"
   id="stop44" />
						<stop
   offset="1"
   style="stop-color:#D683A7"
   id="stop45" />
					</linearGradient>
					<path
   style="fill:url(#SVGID_00000100343530472228577490000009390337550220086193_)"
   d="m 264.145,88.578 c -0.422,2.438 0.307,3.038 0.576,5.317 0.269,2.279 0.346,11.273 7.833,13.032 7.487,1.759 16.855,-10.353 17.892,-12.992 0.845,2.199 3.763,2.159 4.991,-0.04 1.229,-2.199 -0.077,-5.836 -2.112,-6.116 -2.035,-0.28 -2.957,2.598 -3.34,2.638 -0.384,0.04 -0.538,-7.115 -0.538,-7.115 0,0 -14.974,2.359 -21.117,-4.117 -3.225,3.597 -4.185,9.393 -4.185,9.393 z"
   id="path45" />
					<path
   style="fill:none;stroke:#c85e8b;stroke-width:0.4486;stroke-linecap:round;stroke-miterlimit:9"
   d="m 268.318,90.928 -1.491,2.979 c -0.37,0.738 0.015,1.631 0.805,1.869 l 1.286,0.388"
   id="path46" />
					<path
   style="fill:none;stroke:#c85e8b;stroke-width:0.4486;stroke-linecap:round;stroke-miterlimit:9"
   d="m 294.601,90.148 c -0.72,-0.819 -1.939,-0.26 -2.398,1.239 -0.46,1.499 -0.12,2.059 -0.12,2.059"
   id="path47" />
					<path
   style="fill:#2b377c"
   d="m 288.243,80.165 v 9.425 c 0,0.831 -0.663,1.528 -1.494,1.573 l -4.943,0.258 -0.764,0.034 c -0.101,0 -0.191,0.011 -0.281,0.034 L 271.1,93.77 c -0.427,0.101 -0.865,0.022 -1.236,-0.225 l -0.966,-0.64 c -0.697,-0.46 -1.629,-0.303 -2.123,0.36 l -0.91,1.202 c -0.27,0.348 -0.663,0.573 -1.101,0.618 l -2.449,0.225 c -0.842,0.09 -1.606,-0.528 -1.707,-1.371 l -1.191,-10.11 c -0.101,-0.809 0.438,-1.561 1.236,-1.73 l 19.985,-4.179 c 0.168,-0.034 0.348,-0.045 0.517,-0.022 l 0.146,0.022 5.561,0.685 c 0.786,0.088 1.381,0.762 1.381,1.56 z"
   id="path48" />
					<path
   style="fill:none;stroke:#c85e8b;stroke-width:0.4486;stroke-linecap:round;stroke-miterlimit:9"
   d="m 272.675,99.722 c 0,0 2.918,0.64 4.637,-2.838"
   id="path49" />
					
						<linearGradient
   id="SVGID_00000166657090364173543500000015951070063655088560_"
   gradientUnits="userSpaceOnUse"
   x1="216.1111"
   y1="154.3136"
   x2="313.40909"
   y2="80.639297">
						<stop
   offset="4.100000e-07"
   style="stop-color:#F0C9CF"
   id="stop49" />
						<stop
   offset="1"
   style="stop-color:#D683A7"
   id="stop50" />
					</linearGradient>
					<path
   style="fill:url(#SVGID_00000166657090364173543500000015951070063655088560_)"
   d="m 249.993,159.642 -12.694,19.131 c -2.213,3.325 -6.336,4.842 -10.178,3.73 L 185.13,170.36 c 0,0 -1.404,-0.079 -4.01,-0.011 -2.595,0.067 -9.335,-0.73 -8.47,-1.797 0.865,-1.067 5.943,-1.606 5.943,-1.606 l -6.01,-5.336 c 0,0 -8.538,2.134 -7.74,1 0.798,-1.134 6.673,-3.201 6.673,-3.201 l -1.067,-1.269 c 0,0 -10.683,-1.135 -10.009,-2.73 0.663,-1.606 12.346,-0.067 13.278,0.326 0.932,0.404 11.076,9.616 11.076,9.616 l 41.508,0.461 10.773,-18.884 c -10e-4,-0.003 8.919,-0.003 12.918,12.713 z"
   id="path50" />
					
						<linearGradient
   id="SVGID_00000139281601033846869890000005861562864980730545_"
   gradientUnits="userSpaceOnUse"
   x1="315.45941"
   y1="202.0862"
   x2="407.28561"
   y2="-5.5900998">
						<stop
   offset="4.100000e-07"
   style="stop-color:#F0C9CF"
   id="stop51" />
						<stop
   offset="1"
   style="stop-color:#D683A7"
   id="stop52" />
					</linearGradient>
					<path
   style="fill:url(#SVGID_00000139281601033846869890000005861562864980730545_)"
   d="m 337.884,183.401 c -6.999,11.616 -23.456,39.014 -23.826,40.542 -0.472,1.932 -0.865,21.883 -2.606,20.995 -1.73,-0.899 -1.337,-11.919 -1.337,-11.919 0,0 -2.73,12.739 -3.932,11.874 -1.202,-0.865 0.663,-13.211 0.663,-13.211 0,0 -4.404,12.941 -5.999,11.806 -1.562,-1.101 2.505,-11.694 2.718,-12.256 -0.427,0.607 -8.807,12.604 -9.2,10.593 -0.393,-2.067 7.751,-15.75 7.751,-15.75 0,0 -6.617,1.46 -6.617,0 0,-1.472 3.606,-2.269 4.943,-3.269 1.337,-1 5.606,-2.269 5.606,-2.269 l 17.221,-41.227 -5.212,-17.67 0.022,-0.022 c 0.573,-0.573 9.683,-9.706 15.502,-10.391 l 5.819,21.243 c 1.012,3.697 0.461,7.64 -1.516,10.931 z"
   id="path52" />
					<path
   style="opacity:0.25"
   d="m 261.743,135.254 c -4.538,5.201 -8.01,9.077 -7.448,17.985 l -4.303,6.403 c -0.876,-2.797 -2,-4.988 -3.213,-6.684 0.371,-1.685 0.91,-3.393 1.708,-5.033 4.01,-8.201 15.615,-16.435 16.322,-23.085 10e-4,0 1.472,5.202 -3.066,10.414 z"
   id="path53" />
					<path
   style="opacity:0.25"
   d="m 309.755,143.32 c 0,0 -3.909,12.818 -4.505,22.231 -0.607,9.403 -1.606,39.632 -1.606,39.632 0,0 -1.73,-4.134 -9.998,-7.852 2.853,-5.302 5.797,-13.199 5.999,-23.377 0.393,-20.019 3.404,-24.22 10.11,-30.634 z"
   id="path54" />
					<path
   style="fill:#131f4c"
   d="m 286.897,81.796 c 5.939,-0.868 10.243,0.99 10.744,1.123 0.501,0.133 1.568,2.27 1.568,2.27 l -11.711,1.078"
   id="path55" />
					<path
   style="fill:#3e509b"
   d="m 288.243,80.165 v 9.425 c 0,0.831 -0.663,1.528 -1.494,1.573 l -4.943,0.258 c -0.989,-3.123 -1.326,-11.458 -0.505,-13.503 l 5.561,0.685 c 0.786,0.09 1.381,0.764 1.381,1.562 z"
   id="path56" />
					
						<line
   style="fill:none;stroke:#c85e8b;stroke-width:0.4486;stroke-linecap:round;stroke-miterlimit:9"
   x1="226.30099"
   y1="165.80901"
   x2="231.274"
   y2="167.24899"
   id="line56" />
					
						<line
   style="fill:none;stroke:#c85e8b;stroke-width:0.4486;stroke-linecap:round;stroke-miterlimit:9"
   x1="323.26901"
   y1="179.312"
   x2="327.07101"
   y2="174.25101"
   id="line57" />
					
						<linearGradient
   id="SVGID_00000106834270206029801270000010869140888445437328_"
   gradientUnits="userSpaceOnUse"
   x1="158.1779"
   y1="325.88791"
   x2="319.94089"
   y2="533.29681">
						<stop
   offset="2.700000e-07"
   style="stop-color:#454AE6"
   id="stop57" />
						<stop
   offset="1"
   style="stop-color:#7EA0FB"
   id="stop58" />
					</linearGradient>
					<path
   style="fill:url(#SVGID_00000106834270206029801270000010869140888445437328_)"
   d="m 195.836,355.241 c -5.1,3.797 -14.413,15.109 -21.625,19.614 -7.201,4.505 -9.301,0.404 -6.302,-3.303 1.629,-2.011 6.089,-10.908 9.605,-19.76 3.258,0.764 6.516,3.943 6.516,3.943 0,0 11.166,-9.324 15.615,-15.514 1.236,2 2.494,3.685 3.202,4.606 1.695,2.202 -1.9,6.606 -7.011,10.414 z"
   id="path58" />
					
						<linearGradient
   id="SVGID_00000124162061306044029540000006269458377842189480_"
   gradientUnits="userSpaceOnUse"
   x1="195.12759"
   y1="415.7489"
   x2="273.80701"
   y2="484.01791">
						<stop
   offset="2.700000e-07"
   style="stop-color:#454AE6"
   id="stop59" />
						<stop
   offset="1"
   style="stop-color:#7EA0FB"
   id="stop60" />
					</linearGradient>
					<path
   style="fill:url(#SVGID_00000124162061306044029540000006269458377842189480_)"
   d="m 211.731,404.736 c -0.18,1.91 -0.697,3.314 -1.91,4.392 -2.539,2.269 -9.009,11.672 -21.153,16.345 -12.155,4.673 -14.817,-2.595 -11.144,-5.403 1.696,-1.292 5.965,-5.594 10.144,-10.29 5.313,0.18 7.538,4.606 10.2,4.887 2.596,0.28 10.583,-5.303 13.863,-9.931 z"
   id="path60" />
				</g>
				
					<path
   style="fill:none;stroke:#2b377c;stroke-width:0.8425;stroke-linecap:round;stroke-linejoin:round;stroke-miterlimit:10"
   d="m 285.328,84.669 c 12.18,2.265 6.307,-25.229 18.319,-31.902 12.012,-6.673 3.604,18.285 12.279,23.757 8.675,5.472 5.873,-19.486 21.488,-14.014"
   id="path61" />
				<path
   style="fill:#131f4c"
   d="m 339.583,62.625 c 0,1.162 -0.942,2.104 -2.103,2.104 -1.162,0 -2.103,-0.942 -2.103,-2.104 0,-1.162 0.942,-2.103 2.103,-2.103 1.161,0 2.103,0.942 2.103,2.103 z"
   id="path62" />
				<g
   id="g64">
					<path
   style="fill:#2b377c"
   d="m 350.301,86.644 -14.912,-2.668 c -0.925,-0.165 -1.541,-1.05 -1.376,-1.975 l 5.1,-28.509 c 0.165,-0.925 1.05,-1.541 1.975,-1.375 L 356,54.784 c 0.925,0.165 1.541,1.05 1.375,1.975 l -5.1,28.509 c -0.165,0.925 -1.049,1.541 -1.974,1.376 z"
   id="path63" />
					
						<linearGradient
   id="SVGID_00000127039814327377440230000010213185461215464882_"
   gradientUnits="userSpaceOnUse"
   x1="338.75159"
   y1="54.4091"
   x2="362.37701"
   y2="117.0763"
   gradientTransform="matrix(1.0803,8e-4,8e-4,1.0758,-27.1501,-7.4821)">
						<stop
   offset="0.014"
   style="stop-color:#ECB6A2"
   id="stop63" />
						<stop
   offset="0.9911"
   style="stop-color:#D4506D"
   id="stop64" />
					</linearGradient>
					<path
   style="fill:url(#SVGID_00000127039814327377440230000010213185461215464882_)"
   d="m 349.934,85.151 -13.683,-2.448 c -0.847,-0.151 -1.411,-0.961 -1.259,-1.808 l 4.656,-26.026 c 0.151,-0.847 0.961,-1.411 1.808,-1.259 l 13.683,2.448 c 0.847,0.152 1.411,0.961 1.259,1.808 l -4.656,26.026 c -0.152,0.846 -0.961,1.41 -1.808,1.259 z"
   id="path64" />
				</g>
				<path
   style="fill:#ffffff"
   d="m 348.218,69.432 -3.967,-3.455 c -0.139,-0.121 -0.357,-0.046 -0.392,0.134 l -1.009,5.163 c -0.035,0.181 0.138,0.332 0.312,0.272 l 4.976,-1.708 c 0.175,-0.059 0.219,-0.285 0.08,-0.406 z"
   id="path65" />
			</g>
			<g
   id="g110">
				<path
   style="fill:#869de6"
   d="m 379.998,344.156 c 0,0 -12.279,1.201 -13.747,6.139 -1.468,4.938 2.135,28.963 6.874,32.166 4.738,3.203 6.607,-21.168 10.21,-28.135 3.603,-6.967 -3.337,-10.17 -3.337,-10.17 z"
   id="path66" />
				<path
   style="fill:#869de6"
   d="m 438.178,442.024 c 0,0 -9.078,8.355 -7.276,13.181 1.803,4.826 19.15,21.833 24.861,21.536 5.712,-0.297 -7.476,-20.876 -8.796,-28.608 -1.32,-7.732 -8.789,-6.109 -8.789,-6.109 z"
   id="path67" />
				<path
   style="fill:#2b377c"
   d="m 463.311,322.434 c -1.359,6.605 -6.044,12.29 -16.311,14.716 -11.436,2.696 -34.083,11.335 -48.832,17.176 -8.245,3.258 -14.02,5.651 -14.02,5.651 0,0 -6.617,-8.01 -5.415,-16.817 2.528,-3.64 6.898,-7.594 11.964,-11.436 14.143,-10.728 33.678,-20.602 33.678,-20.602 0,0 -5.942,-11.919 -11.851,-25.141 -6.605,-14.772 -13.166,-31.162 -11.368,-34.397 3.404,-6.133 22.624,-3.729 22.624,-3.729 0,0 34.026,47.855 38.037,59.459 1.696,4.92 2.494,10.267 1.494,15.12 z"
   id="path68" />
				<path
   style="opacity:0.25"
   d="m 463.311,322.434 c -1.359,6.605 -6.044,12.29 -16.311,14.716 -11.436,2.696 -34.083,11.335 -48.832,17.176 -2.921,-5.482 -6.527,-13.761 -7.47,-22.602 14.143,-10.728 33.678,-20.602 33.678,-20.602 0,0 -5.942,-11.919 -11.851,-25.141 l 3.466,-15.6 c 0.246,-1.108 1.759,-1.28 2.235,-0.249 11.864,25.683 32.41,51.709 45.085,52.302 z"
   id="path69" />
				<path
   style="fill:#2b377c"
   d="m 372.724,269.48 c 2.202,16.083 44.111,84.12 45.713,87.873 1.602,3.753 1.868,63.813 13.347,87.838 6.94,5.339 18.152,3.203 18.152,-2.402 0,-5.606 0.534,-81.914 -1.868,-89.94 -2.402,-8.026 -40,-104.924 -40,-104.924 0,0 -30.873,10.277 -35.344,21.555 z"
   id="path70" />
				
					<linearGradient
   id="SVGID_00000014595752282375673100000007188577312517619599_"
   gradientUnits="userSpaceOnUse"
   x1="384.21439"
   y1="135.2748"
   x2="461.8909"
   y2="437.9736">
					<stop
   offset="2.700000e-07"
   style="stop-color:#96CEFC"
   id="stop70" />
					<stop
   offset="1"
   style="stop-color:#263DEA"
   id="stop71" />
				</linearGradient>
				<path
   style="fill:url(#SVGID_00000014595752282375673100000007188577312517619599_)"
   d="m 461.817,253.067 -9.414,8.245 c 0,0 -17.67,-14.267 -26.264,-23.096 -2.202,-2.258 -3.797,-4.156 -4.37,-5.37 -2.269,-4.887 -3.898,-13.817 -4.426,-16.996 l -0.18,-1.168 c 0,0 -0.595,18.76 6.616,33.173 -3.123,0.258 -6.74,1.09 -10.571,2.28 -17.075,5.325 -38.52,17.873 -40.486,19.344 -2.404,1.809 -7.01,-23.22 -10.009,-46.046 -0.663,-5.033 -1.438,-10.178 -2.247,-15.132 -2.865,-17.502 -6.145,-32.69 -6.145,-32.69 7.291,-14.649 17.131,-16.727 31.533,-18.985 1.359,-0.213 2.763,-0.438 4.213,-0.663 0,0 6.92,1.18 15.233,4.168 2.763,0.988 5.684,2.179 8.56,3.595 11.514,5.65 15.918,14.233 16.525,26.961 0.595,12.728 6.999,39.61 6.999,39.61 z"
   id="path71" />
				
					<linearGradient
   id="SVGID_00000112606434595612927750000001606327486683288972_"
   gradientUnits="userSpaceOnUse"
   x1="375.5939"
   y1="222.0361"
   x2="413.2319"
   y2="105.5184">
					<stop
   offset="2.700000e-07"
   style="stop-color:#96CEFC"
   id="stop72" />
					<stop
   offset="1"
   style="stop-color:#263DEA"
   id="stop73" />
				</linearGradient>
				<path
   style="fill:url(#SVGID_00000112606434595612927750000001606327486683288972_)"
   d="m 405.301,160.132 c 0.079,5.291 -1.348,11.717 -8.818,11.312 -10.11,-0.528 -10.762,-10.773 -10.627,-14.817 1.359,-0.213 2.763,-0.438 4.213,-0.663 -0.001,0 6.919,1.179 15.232,4.168 z"
   id="path73" />
				<path
   style="opacity:0.25"
   d="m 413.209,250.135 c -17.075,5.325 -38.52,17.873 -40.486,19.344 -2.404,1.809 -7.01,-23.22 -10.009,-46.046 -0.663,-5.033 -1.438,-10.178 -2.247,-15.132 l 12.896,-31.544 c 5.584,35.352 24.816,62.908 39.846,73.378 z"
   id="path74" />
				<g
   id="g87">
					<path
   style="fill:#441c3a"
   d="m 388.473,134.15 -1.948,-7.161 c -1.068,-3.926 2.174,-7.685 6.214,-7.207 l 1.383,0.164 v -2.291 c 0,-3.411 2.845,-6.137 6.252,-5.974 3.33,0.159 7.258,0.281 9.827,0.141 5.227,-0.284 10.056,-4.772 13.068,-3.295 3.011,1.477 0.682,6.022 -1.023,7.216 5.057,-0.341 9.318,-1.136 9.659,5.057 0.341,6.193 -8.522,12.045 -12.84,13.011 -4.318,0.966 -21.874,2.159 -21.874,2.159 l -3.636,4.602 z"
   id="path75" />
					
						<linearGradient
   id="SVGID_00000015347436669825065470000017245327403290710697_"
   gradientUnits="userSpaceOnUse"
   x1="394.76349"
   y1="155.2596"
   x2="429.6481"
   y2="118.6706">
						<stop
   offset="4.100000e-07"
   style="stop-color:#F0C9CF"
   id="stop75" />
						<stop
   offset="1"
   style="stop-color:#D683A7"
   id="stop76" />
					</linearGradient>
					<path
   style="fill:url(#SVGID_00000015347436669825065470000017245327403290710697_)"
   d="m 404.493,154.686 c -2.324,3.395 -2.487,6.733 -3.013,9.201 -0.516,2.496 -1.406,4.093 -5.26,3.94 -7.67,-0.297 -7.747,-10.023 -7.747,-10.023 0,0 1.272,-9.191 2.974,-16.268 l 3.003,3.032 z"
   id="path76" />
					
						<linearGradient
   id="SVGID_00000057137735474001065650000010921412016087093681_"
   gradientUnits="userSpaceOnUse"
   x1="399.75079"
   y1="130.05949"
   x2="396.34189"
   y2="172.33009">
						<stop
   offset="4.100000e-07"
   style="stop-color:#F0C9CF"
   id="stop77" />
						<stop
   offset="1"
   style="stop-color:#D683A7"
   id="stop78" />
					</linearGradient>
					<path
   style="fill:url(#SVGID_00000057137735474001065650000010921412016087093681_)"
   d="m 404.493,154.686 c -2.324,3.395 -2.487,6.733 -3.013,9.201 -7.202,-2.974 -9.573,-12.022 -9.583,-19.864 l 2.553,0.545 z"
   id="path78" />
					
						<linearGradient
   id="SVGID_00000082351441786066126050000010651396247701397672_"
   gradientUnits="userSpaceOnUse"
   x1="396.13681"
   y1="149.99271"
   x2="460.90411"
   y2="70.056297"
   gradientTransform="matrix(0.9983,-0.0589,0.0589,0.9983,-7.976,23.1933)">
						<stop
   offset="4.100000e-07"
   style="stop-color:#F0C9CF"
   id="stop79" />
						<stop
   offset="1"
   style="stop-color:#D683A7"
   id="stop80" />
					</linearGradient>
					<path
   style="fill:url(#SVGID_00000082351441786066126050000010651396247701397672_)"
   d="m 396.3,131.255 c -1.431,2.518 -3.172,7.742 -3.172,7.742 0,0 -1.449,-2.134 -1.637,-4.599 -0.906,-2.337 -4.64,-2.672 -5.391,1.236 -0.751,3.907 2.087,7.155 4.791,5.245 0.003,5.122 6.296,17.002 13.783,18.011 7.487,1.01 12.165,-8.7 12.707,-12.531 0.542,-3.831 3.653,-11.484 3.448,-14.076 -3.254,2.882 -20.948,1.791 -24.529,-1.028 z"
   id="path80" />
					<path
   style="fill:none;stroke:#c85e8b;stroke-width:0.3819;stroke-linecap:round;stroke-miterlimit:9"
   d="m 388.473,135.417 c 1.577,-0.128 1.875,2.258 1.364,3.324"
   id="path81" />
					<path
   style="fill:none;stroke:#c85e8b;stroke-width:0.3819;stroke-linecap:round;stroke-miterlimit:9"
   d="m 411.65,141.536 0.524,5.52 c 0.064,0.671 -0.426,1.269 -1.097,1.338 l -1.686,0.174"
   id="path82" />
					<path
   style="fill:#441c3a"
   d="m 406.112,143.213 c 0,0.447 -0.362,0.81 -0.81,0.81 -0.447,0 -0.81,-0.362 -0.81,-0.81 0,-0.447 0.362,-0.81 0.81,-0.81 0.447,0 0.81,0.363 0.81,0.81 z"
   id="path83" />
					<path
   style="fill:#441c3a"
   d="m 416.152,143.411 c 0,0.447 -0.362,0.81 -0.81,0.81 -0.447,0 -0.81,-0.363 -0.81,-0.81 0,-0.447 0.363,-0.81 0.81,-0.81 0.448,0 0.81,0.363 0.81,0.81 z"
   id="path84" />
					
						<path
   style="fill:none;stroke:#441c3a;stroke-width:0.4782;stroke-linecap:round;stroke-linejoin:round;stroke-miterlimit:10"
   d="m 403.408,139.576 c 0,0 1.892,-1.491 4.875,-0.213"
   id="path85" />
					
						<path
   style="fill:none;stroke:#441c3a;stroke-width:0.4782;stroke-linecap:round;stroke-linejoin:round;stroke-miterlimit:10"
   d="m 413.865,139.959 c 0,0 2.258,-1.406 4.006,0"
   id="path86" />
					<path
   style="fill:none;stroke:#c85e8b;stroke-width:0.3819;stroke-linecap:round;stroke-miterlimit:9"
   d="m 403.408,151.673 c 0,0 1.253,2.049 4.875,1.623"
   id="path87" />
				</g>
				<path
   style="fill:#869de6"
   d="m 443.791,256.098 c 0,0 -32.032,5.873 -32.433,7.341 -0.4,1.468 33.367,23.09 33.367,23.09 l 40.307,-13.881 -30.164,-18.952 z"
   id="path88" />
				<path
   style="fill:#acc3fc"
   d="m 450.702,264.013 c 0,0 -17.935,3.288 -18.159,4.11 -0.224,0.822 18.682,12.928 18.682,12.928 l 22.568,-7.772 -16.889,-10.611 z"
   id="path89" />
				<path
   style="fill:#acc3fc"
   d="m 441.625,258.522 c 0,0 -5.483,1.005 -5.551,1.256 -0.069,0.251 5.711,3.952 5.711,3.952 l 8.201,-2.058 -5.456,-3.47 z"
   id="path90" />
				
					<linearGradient
   id="SVGID_00000010296411458199857840000002257703385675331211_"
   gradientUnits="userSpaceOnUse"
   x1="424.88351"
   y1="267.9787"
   x2="369.36081"
   y2="194.03751">
					<stop
   offset="4.100000e-07"
   style="stop-color:#F0C9CF"
   id="stop90" />
					<stop
   offset="1"
   style="stop-color:#D683A7"
   id="stop91" />
				</linearGradient>
				<path
   style="fill:url(#SVGID_00000010296411458199857840000002257703385675331211_)"
   d="m 412.497,251.729 c 0,0 10.544,2.069 11.545,2.736 1.001,0.667 4.538,6.995 4.538,8.202 0,1.207 -4.071,-3.175 -4.071,-3.175 0,0 1.919,6.251 2.494,9.187 0.575,2.936 -5.498,0.868 -7.5,-1.802 -2.002,-2.669 -9.589,-6.406 -11.435,-8.742 -1.844,-2.335 4.429,-6.406 4.429,-6.406 z"
   id="path91" />
				
					<linearGradient
   id="SVGID_00000012460993782074764980000002271334864326563720_"
   gradientUnits="userSpaceOnUse"
   x1="362.62259"
   y1="140.8186"
   x2="440.27621"
   y2="443.4281">
					<stop
   offset="2.700000e-07"
   style="stop-color:#96CEFC"
   id="stop92" />
					<stop
   offset="1"
   style="stop-color:#263DEA"
   id="stop93" />
				</linearGradient>
				<path
   style="fill:url(#SVGID_00000012460993782074764980000002271334864326563720_)"
   d="m 411.722,254.757 c -1.955,2.247 -3.258,4.976 -3.741,7.908 l -3.46,-2.078 -33.858,-20.344 c -6.032,-3.628 -10.11,-9.74 -11.189,-16.693 -2.067,-13.289 -6.796,-32.353 -6.167,-41.025 0.921,-12.896 5.055,-15.57 11.099,-15.817 5.1,-0.213 9.358,3.775 9.459,16.547 0.112,12.773 1.629,38.295 1.921,39.082 0.292,0.798 0.292,0.798 0.292,0.798 0,0 9.357,6.302 18.884,12.728 7.336,4.943 14.75,9.953 18.109,12.245 1.011,0.685 1.651,1.134 1.809,1.247 0.763,0.571 -1.248,3.2 -3.158,5.402 z"
   id="path93" />
				
					<linearGradient
   id="SVGID_00000156585469446770243090000010099362792844672675_"
   gradientUnits="userSpaceOnUse"
   x1="411.4592"
   y1="251.0416"
   x2="460.3085"
   y2="152.2755">
					<stop
   offset="2.700000e-07"
   style="stop-color:#96CEFC"
   id="stop94" />
					<stop
   offset="1"
   style="stop-color:#263DEA"
   id="stop95" />
				</linearGradient>
				<path
   style="fill:url(#SVGID_00000156585469446770243090000010099362792844672675_)"
   d="m 411.722,254.757 c -1.955,2.247 -3.258,4.976 -3.741,7.908 l -3.46,-2.078 c 1.022,-5.819 4.055,-9.616 8.549,-12.48 1.011,0.685 1.651,1.134 1.809,1.247 0.764,0.572 -1.247,3.201 -3.157,5.403 z"
   id="path95" />
				<path
   style="opacity:0.25"
   d="m 426.139,238.216 c -2.202,-2.258 -3.797,-4.156 -4.37,-5.37 -2.269,-4.887 -3.898,-13.817 -4.426,-16.996 l -0.18,-1.168 c 0,0 -0.236,-21.276 -2.112,-30.69 5.786,7.122 3.506,36.385 11.088,54.224 z"
   id="path96" />
				<path
   style="fill:#415c9a"
   d="m 443.985,285.021 12.324,-41.134 c 0.269,-0.897 0.992,-1.586 1.901,-1.811 l 43.746,-12.51 c 1.048,-0.259 1.971,0.738 1.632,1.763 l -14.491,39.232 c -0.26,0.784 -0.87,1.402 -1.651,1.671 l -41.79,14.391 c -1.004,0.346 -1.975,-0.587 -1.671,-1.602 z"
   id="path97" />
				<path
   style="opacity:0.25;fill:#ffffff"
   d="m 397.457,196.924 c 0,1.041 -0.844,1.884 -1.884,1.884 -1.041,0 -1.884,-0.844 -1.884,-1.884 0,-1.04 0.844,-1.884 1.884,-1.884 1.04,0 1.884,0.844 1.884,1.884 z"
   id="path98" />
				<path
   style="opacity:0.25;fill:#ffffff"
   d="m 407.996,182.472 c 0,1.041 -0.844,1.884 -1.884,1.884 -1.041,0 -1.884,-0.844 -1.884,-1.884 0,-1.04 0.844,-1.884 1.884,-1.884 1.04,0 1.884,0.843 1.884,1.884 z"
   id="path99" />
				<path
   style="opacity:0.25;fill:#ffffff"
   d="m 428.888,211.104 c 0,1.041 -0.844,1.884 -1.884,1.884 -1.041,0 -1.884,-0.844 -1.884,-1.884 0,-1.041 0.844,-1.884 1.884,-1.884 1.041,-0.001 1.884,0.843 1.884,1.884 z"
   id="path100" />
				<path
   style="opacity:0.25;fill:#ffffff"
   d="m 409.615,210.893 c 0,1.041 -0.844,1.884 -1.884,1.884 -1.04,0 -1.884,-0.844 -1.884,-1.884 0,-1.041 0.844,-1.884 1.884,-1.884 1.04,0 1.884,0.843 1.884,1.884 z"
   id="path101" />
				<path
   style="opacity:0.25;fill:#ffffff"
   d="m 367.156,214.682 c 0,1.041 -0.844,1.884 -1.884,1.884 -1.04,0 -1.884,-0.844 -1.884,-1.884 0,-1.041 0.844,-1.884 1.884,-1.884 1.04,0 1.884,0.843 1.884,1.884 z"
   id="path102" />
				<path
   style="opacity:0.25;fill:#ffffff"
   d="m 378.588,253.696 c 0,1.041 -0.844,1.884 -1.884,1.884 -1.041,0 -1.884,-0.844 -1.884,-1.884 0,-1.04 0.844,-1.884 1.884,-1.884 1.04,-0.001 1.884,0.843 1.884,1.884 z"
   id="path103" />
				<path
   style="opacity:0.25;fill:#ffffff"
   d="m 409.615,234.645 c 0,1.041 -0.844,1.884 -1.884,1.884 -1.04,0 -1.884,-0.844 -1.884,-1.884 0,-1.041 0.844,-1.884 1.884,-1.884 1.04,0 1.884,0.843 1.884,1.884 z"
   id="path104" />
				<path
   style="opacity:0.25;fill:#ffffff"
   d="m 437.957,236.529 c 0,1.041 -0.844,1.884 -1.884,1.884 -1.04,0 -1.884,-0.844 -1.884,-1.884 0,-1.041 0.844,-1.884 1.884,-1.884 1.04,0 1.884,0.844 1.884,1.884 z"
   id="path105" />
				<path
   style="opacity:0.25;fill:#ffffff"
   d="m 385.842,185.533 c 0,1.041 -0.844,1.884 -1.884,1.884 -1.041,0 -1.884,-0.844 -1.884,-1.884 0,-1.04 0.844,-1.884 1.884,-1.884 1.04,0 1.884,0.844 1.884,1.884 z"
   id="path106" />
				<path
   style="opacity:0.25;fill:#ffffff"
   d="m 388.723,218.922 c 0,1.041 -0.844,1.884 -1.884,1.884 -1.04,0 -1.884,-0.844 -1.884,-1.884 0,-1.041 0.844,-1.884 1.884,-1.884 1.04,0 1.884,0.843 1.884,1.884 z"
   id="path107" />
				<path
   style="opacity:0.25;fill:#ffffff"
   d="m 367.156,196.924 c 0,1.041 -0.844,1.884 -1.884,1.884 -1.04,0 -1.884,-0.844 -1.884,-1.884 0,-1.04 0.844,-1.884 1.884,-1.884 1.04,0 1.884,0.844 1.884,1.884 z"
   id="path108" />
				<path
   style="opacity:0.25;fill:#ffffff"
   d="m 417.753,173.078 c 0,1.041 -0.844,1.884 -1.884,1.884 -1.041,0 -1.884,-0.844 -1.884,-1.884 0,-1.041 0.844,-1.884 1.884,-1.884 1.04,0 1.884,0.843 1.884,1.884 z"
   id="path109" />
				<path
   style="opacity:0.25;fill:#ffffff"
   d="m 372.724,168.557 c 0,1.041 -0.844,1.884 -1.884,1.884 -1.041,0 -1.884,-0.844 -1.884,-1.884 0,-1.041 0.844,-1.884 1.884,-1.884 1.04,-0.001 1.884,0.843 1.884,1.884 z"
   id="path110" />
			</g>
			<g
   id="g145">
				
					<linearGradient
   id="SVGID_00000008855197374832893320000006819622703826824590_"
   gradientUnits="userSpaceOnUse"
   x1="540.51178"
   y1="339.3519"
   x2="563.13867"
   y2="266.26501">
					<stop
   offset="4.100000e-07"
   style="stop-color:#F0C9CF"
   id="stop110" />
					<stop
   offset="1"
   style="stop-color:#D683A7"
   id="stop111" />
				</linearGradient>
				<path
   style="fill:url(#SVGID_00000008855197374832893320000006819622703826824590_)"
   d="m 548.064,336.515 c -3.437,3.404 -18.592,21.232 -19.389,15.222 -0.607,-4.606 4.404,-15.177 5.987,-22.58 0.483,-2.269 0.64,-4.246 0.214,-5.65 l 5.37,-8.212 c 0,0 7.841,5.358 12.132,8.324 1.46,1.011 2.516,1.741 2.719,1.887 0.808,0.606 -3.595,7.616 -7.033,11.009 z"
   id="path111" />
				<path
   style="fill:#415c9a"
   d="m 548.064,336.515 c -3.437,3.404 -18.592,21.232 -19.389,15.222 -0.607,-4.606 4.404,-15.177 5.987,-22.58 4.797,1.191 9.683,2.999 13.402,-1.797 1.157,-1.494 2.696,-2.73 4.314,-3.741 1.46,1.011 2.516,1.741 2.719,1.887 0.808,0.606 -3.595,7.616 -7.033,11.009 z"
   id="path112" />
				
					<linearGradient
   id="SVGID_00000152252974788588092160000005577521369258675587_"
   gradientUnits="userSpaceOnUse"
   x1="543.11188"
   y1="409.41171"
   x2="604.50708"
   y2="260.99579">
					<stop
   offset="4.100000e-07"
   style="stop-color:#F0C9CF"
   id="stop112" />
					<stop
   offset="1"
   style="stop-color:#D683A7"
   id="stop113" />
				</linearGradient>
				<path
   style="fill:url(#SVGID_00000152252974788588092160000005577521369258675587_)"
   d="m 558.568,388.043 c 0,2.932 -1.73,15.21 -5.74,23.22 -3.999,8.01 -14.547,14.008 -15.21,3.606 -0.528,-8.279 2.831,-17.659 4.887,-26.185 0.528,-2.202 0.977,-4.336 1.247,-6.381 l 13.885,-3.741 c 0,0 0.303,2.123 0.573,4.505 0.189,1.786 0.358,3.707 0.358,4.976 z"
   id="path113" />
				<path
   style="fill:#415c9a"
   d="m 558.568,388.043 c 0,2.932 -1.73,15.21 -5.74,23.22 -3.999,8.01 -14.547,14.008 -15.21,3.606 -0.528,-8.279 2.831,-17.659 4.887,-26.185 3.831,-1.651 8.493,-1.112 10.593,0.292 2.606,1.73 3.595,0.483 5.111,-5.909 0.19,1.786 0.359,3.707 0.359,4.976 z"
   id="path114" />
				<path
   style="fill:#323266"
   d="m 581.529,203.981 c -0.831,2.539 -2.415,5.718 -4.482,9.29 -2.146,3.685 -4.819,7.785 -7.774,12.02 -5.999,8.639 -13.121,17.873 -19.142,25.422 -7.403,9.268 -13.143,16.008 -13.143,16.008 0.011,0.034 0.022,0.067 0.022,0.101 0.101,0.483 0.55,2.629 1.191,5.808 0.022,0.034 0.022,0.056 0.022,0.09 1.157,5.841 2.932,15.154 4.325,24.242 0,0.011 0,0.011 0,0.011 1.932,12.548 3.157,24.646 1.079,26.601 -0.573,0.539 -1.157,1.022 -1.764,1.449 -4.179,2.999 -8.818,3.348 -9.987,-0.382 -0.258,-0.809 -1.472,-2.842 -3.224,-5.74 -7.493,-12.357 -24.826,-40.441 -19.198,-56.415 5.651,-16.053 27.601,-47.237 35.543,-58.257 1.82,-2.516 2.898,-3.977 2.898,-3.977 0,0 8.515,-2.898 17.041,-4.269 0,0 0.067,-0.011 0.202,-0.022 5.493,-0.865 10.953,-1.09 14.132,0.528 2.461,1.235 3.551,3.549 2.259,7.492 z"
   id="path115" />
				<path
   style="opacity:0.25"
   d="m 543.627,323.574 c -4.538,4.269 -10.414,5.336 -11.75,1.067 -0.258,-0.809 -1.472,-2.842 -3.224,-5.74 7.077,-9.369 12.02,-29.387 9.571,-46.181 2.752,13.906 8.987,47.483 5.403,50.854 z"
   id="path116" />
				<path
   style="opacity:0.25"
   d="m 569.273,225.291 c -13.357,19.232 -32.285,41.429 -32.285,41.429 0,0 17.513,-39.306 23.321,-50.158 z"
   id="path117" />
				<path
   style="fill:#323266"
   d="m 595.56,228.594 c -5.572,17.513 -18.052,38.587 -24.309,61.942 1.326,16.884 -8.144,90.43 -11.548,92.216 -3.404,1.786 -20.614,4.224 -19.4,0 0.685,-2.37 1.033,-30.881 1.561,-57.729 0.202,-10.077 0.416,-19.906 0.685,-28.05 0,0 0,0 0,-0.011 0.292,-8.729 0.64,-15.502 1.079,-18.502 0.64,-4.471 3.291,-15.323 6.504,-27.747 3.876,-14.974 8.582,-32.218 11.627,-43.283 1.91,-6.942 3.179,-11.447 3.179,-11.447 0,0 0.067,-0.011 0.202,-0.022 1.168,-0.09 7.392,-0.528 14.132,0.528 8.976,1.382 18.884,5.392 19.074,16.277 0.089,4.875 -0.989,10.166 -2.786,15.828 z"
   id="path118" />
				<path
   style="opacity:0.25"
   d="m 598.346,212.766 c 0.09,4.875 -0.988,10.166 -2.786,15.828 -4.111,-6.561 -10.998,-11.593 -18.513,-15.323 -5.033,-2.505 -10.346,-4.426 -15.289,-5.841 -6.92,-1.988 -13.098,-2.988 -16.761,-3.202 1.82,-2.516 2.898,-3.977 2.898,-3.977 0,0 8.515,-2.898 17.041,-4.269 0,0 0.067,-0.011 0.202,-0.022 5.493,-0.865 10.953,-1.09 14.132,0.528 8.977,1.382 18.885,5.392 19.076,16.278 z"
   id="path119" />
				
					<linearGradient
   id="SVGID_00000126283158256225549030000011731268660301277606_"
   gradientUnits="userSpaceOnUse"
   x1="572.29132"
   y1="99.257698"
   x2="605.12482"
   y2="383.5463">
					<stop
   offset="0"
   style="stop-color:#CAB4FB"
   id="stop119" />
					<stop
   offset="1"
   style="stop-color:#6E38EA"
   id="stop120" />
				</linearGradient>
				<path
   style="fill:url(#SVGID_00000126283158256225549030000011731268660301277606_)"
   d="m 620.667,155.733 -12.716,0.236 c 0,0 -0.303,0.416 -0.584,1.786 -0.348,1.73 -0.674,4.965 -0.315,10.807 0.651,10.481 -6.706,42.732 -6.706,42.732 0,0 2.404,3.505 1.708,6.706 -0.708,3.202 -4.213,1.505 -12.312,-5.403 -1.449,-1.236 -3.202,-2.348 -5.145,-3.336 -8.897,-4.55 -21.827,-6.549 -28.893,-6.471 -8.605,0.09 -11.009,0 -10.908,-2.909 0.09,-2.898 3.898,-5.909 6.898,-16.311 3.011,-10.413 3.808,-22.422 3.808,-22.422 l -2.797,7.605 -7.538,-5.19 -5.482,-3.774 -2.865,-1.977 c 0,0 8.01,-27.23 13.435,-34.835 4.595,-6.459 11.986,-7.347 18.962,-9.279 1.247,-0.337 2.494,-0.719 3.696,-1.168 0,0 7.414,-3.235 9.021,-1.887 0.404,0.348 2.381,0.584 5.179,0.887 8.156,0.842 23.321,2.168 27.05,7.998 4.998,7.829 6.504,36.205 6.504,36.205 z"
   id="path120" />
				
					<linearGradient
   id="SVGID_00000163052469827474053280000004552937093419726777_"
   gradientUnits="userSpaceOnUse"
   x1="530.27478"
   y1="115.3932"
   x2="574.1192"
   y2="187.0656">
					<stop
   offset="0"
   style="stop-color:#CAB4FB"
   id="stop121" />
					<stop
   offset="1"
   style="stop-color:#6E38EA"
   id="stop122" />
				</linearGradient>
				<path
   style="fill:url(#SVGID_00000163052469827474053280000004552937093419726777_)"
   d="m 558.702,132.85 -2.932,23.119 -6.403,8.38 -4.201,-0.786 -5.482,-3.774 c 2.595,-1.472 5.92,-3.831 8.504,-7.279 4.954,-6.618 10.514,-19.66 10.514,-19.66 z"
   id="path122" />
				
					<linearGradient
   id="SVGID_00000111192310127153989720000006301383983371532962_"
   gradientUnits="userSpaceOnUse"
   x1="527.24951"
   y1="105.0538"
   x2="674.59857"
   y2="250.40089">
					<stop
   offset="0"
   style="stop-color:#CAB4FB"
   id="stop123" />
					<stop
   offset="1"
   style="stop-color:#6E38EA"
   id="stop124" />
				</linearGradient>
				<path
   style="fill:url(#SVGID_00000111192310127153989720000006301383983371532962_)"
   d="m 600.345,211.294 c 0,0 2.404,3.505 1.708,6.706 -0.708,3.202 -4.213,1.505 -12.312,-5.403 -1.449,-1.236 -3.202,-2.348 -5.145,-3.336 0,0 13.649,-1.067 13.447,-11.885 -0.202,-10.807 0.101,-25.826 0.101,-25.826 0,0 -5.707,-10.908 -0.494,-13.008 5.201,-2.101 2.898,-28.825 2.898,-28.825 0,0 2.999,7.504 4.909,22.916 l 1.91,5.123 c -0.348,1.73 -0.674,4.965 -0.315,10.807 0.651,10.479 -6.707,42.731 -6.707,42.731 z"
   id="path124" />
				<g
   id="g125">
					<path
   style="opacity:0.25;fill:#ffffff"
   d="m 617.266,128.164 c -0.175,-0.766 -0.358,-1.51 -0.55,-2.223 h -1.031 v -3.289 c -0.453,-1.229 -0.94,-2.297 -1.469,-3.125 -0.214,-0.334 -0.469,-0.651 -0.754,-0.957 v 7.371 h -11.294 v -12.323 c -0.733,-0.16 -1.476,-0.307 -2.223,-0.444 v 12.767 h -11.294 v -14.26 c -0.515,-0.053 -1.013,-0.103 -1.485,-0.152 -0.256,-0.028 -0.497,-0.054 -0.738,-0.081 v 14.494 h -11.294 v -14.269 c -1.25,0.458 -2.167,0.856 -2.167,0.856 -0.018,0.007 -0.038,0.012 -0.056,0.019 v 13.394 h -11.294 v -10.221 c -0.752,0.225 -1.493,0.471 -2.223,0.738 v 9.482 h -10.85 c -0.868,1.66 -1.768,3.636 -2.667,5.793 v 7.724 h -2.98 c -0.269,0.743 -0.534,1.485 -0.794,2.223 h 3.774 v 11.294 h -7.522 c -0.26,0.827 -0.494,1.58 -0.691,2.223 h 8.213 v 8.816 l 2.223,1.531 v -10.347 h 11.294 v 11.294 h -4.366 c -0.083,0.693 -0.177,1.437 -0.284,2.223 h 4.65 v 11.294 h -6.714 c -0.177,0.743 -0.365,1.485 -0.563,2.223 h 7.276 v 11.294 h -11.294 v -0.661 c -0.864,1.679 -1.644,2.977 -2.223,4.058 v 5.11 c 0.51,0.291 1.238,0.478 2.223,0.595 v -6.879 h 11.294 v 7.158 c 0.715,0.047 1.454,0.107 2.223,0.184 v -7.342 h 11.294 v 9.31 c 0.743,0.185 1.485,0.379 2.223,0.588 v -9.898 h 11.294 v 14.492 c 0.784,0.462 1.533,0.942 2.223,1.45 V 195.75 h 11.294 v 18.483 h 1.85 c -0.542,-1.687 -1.396,-2.939 -1.396,-2.939 0,0 0.76,-3.334 1.769,-8.197 v -7.347 h 1.469 c 0.14,-0.731 0.281,-1.473 0.421,-2.223 h -1.89 v -11.294 h 3.801 c 0.111,-0.751 0.217,-1.494 0.315,-2.223 h -4.116 v -11.294 h 4.943 c -0.003,-0.049 -0.003,-0.106 -0.006,-0.154 -0.045,-0.73 -0.079,-1.418 -0.104,-2.069 h -4.834 v -11.294 h 11.294 v 0.669 l 2.223,-0.041 v -0.628 h 5.005 c -0.028,-0.467 -0.076,-1.221 -0.147,-2.223 h -4.857 v -11.294 h 3.792 c -0.087,-0.732 -0.179,-1.474 -0.276,-2.223 h -3.516 v -11.294 h 1.582 z m -57.872,24.812 H 548.1 v -11.294 h 11.294 z m 0,-13.518 H 548.1 v -11.294 h 11.294 z m 13.517,54.069 h -11.294 v -11.294 h 11.294 z m 0,-13.517 h -11.294 v -11.294 h 11.294 z m 0,-13.517 h -11.294 v -11.294 h 11.294 z m 0,-13.517 h -11.294 v -11.294 h 11.294 z m 0,-13.518 h -11.294 v -11.294 h 11.294 z m 13.517,54.069 h -11.294 v -11.294 h 11.294 z m 0,-13.517 h -11.294 v -11.294 h 11.294 z m 0,-13.517 h -11.294 v -11.294 h 11.294 z m 0,-13.517 h -11.294 v -11.294 h 11.294 z m 0,-13.518 h -11.294 v -11.294 h 11.294 z m 13.517,54.069 h -11.294 v -11.294 h 11.294 z m 0,-13.517 h -11.294 v -11.294 h 11.294 z m 0,-13.517 h -11.294 v -11.294 h 11.294 z m 0,-13.517 h -11.294 v -11.294 h 11.294 z m 0,-13.518 h -11.294 v -11.294 h 11.294 z m 13.517,13.518 h -11.294 v -11.294 h 11.294 z m 0,-13.518 h -11.294 v -11.294 h 11.294 z"
   id="path125" />
				</g>
				
					<linearGradient
   id="SVGID_00000131354870414933265410000012831932715440769196_"
   gradientUnits="userSpaceOnUse"
   x1="577.4469"
   y1="86.339897"
   x2="578.448"
   y2="123.7806">
					<stop
   offset="0"
   style="stop-color:#CAB4FB"
   id="stop125" />
					<stop
   offset="1"
   style="stop-color:#6E38EA"
   id="stop126" />
				</linearGradient>
				<path
   style="fill:url(#SVGID_00000131354870414933265410000012831932715440769196_)"
   d="m 587.112,111.529 c -1.011,4.561 -3.999,12.2 -10.784,11.278 -6.605,-0.899 -7.223,-6.403 -7.111,-9.11 1.247,-0.337 2.494,-0.719 3.696,-1.168 0,0 7.414,-3.235 9.021,-1.887 0.404,0.348 2.381,0.583 5.178,0.887 z"
   id="path126" />
				<path
   style="fill:#441c3a"
   d="m 555.699,89.793 c -6.885,-9.809 -8.866,-16.222 -0.755,-20.372 8.111,-4.15 23.956,-3.395 26.409,3.112 5.282,-2.452 10.409,-0.849 7.232,9.809 -3.176,10.658 -4.07,16.128 -4.613,19.146 -0.544,3.018 -10.73,1.981 -10.73,1.981 z"
   id="path127" />
				
					<linearGradient
   id="SVGID_00000137120382526673026320000004030378539121857183_"
   gradientUnits="userSpaceOnUse"
   x1="578.78497"
   y1="108.6298"
   x2="623.19153"
   y2="60.2299">
					<stop
   offset="4.100000e-07"
   style="stop-color:#F0C9CF"
   id="stop127" />
					<stop
   offset="1"
   style="stop-color:#D683A7"
   id="stop128" />
				</linearGradient>
				<path
   style="fill:url(#SVGID_00000137120382526673026320000004030378539121857183_)"
   d="m 583.79,112.201 c 0.114,0.498 0.043,1.028 -0.203,1.476 -4.404,8 -8.629,6.031 -10.676,4.262 -0.794,-0.677 -1.27,-1.651 -1.376,-2.688 -0.042,-0.413 -0.106,-0.91 -0.19,-1.45 -0.275,-1.82 -0.826,-4.213 -1.895,-6.128 l 10.69,-11.23 1.058,-1.111 c 0,-10e-4 1.304,11.257 2.592,16.869 z"
   id="path128" />
				
					<linearGradient
   id="SVGID_00000179630952176261761270000015147053113954747574_"
   gradientUnits="userSpaceOnUse"
   x1="559.68213"
   y1="63.686298"
   x2="578.54529"
   y2="112.3534">
					<stop
   offset="4.100000e-07"
   style="stop-color:#F0C9CF"
   id="stop129" />
					<stop
   offset="1"
   style="stop-color:#D683A7"
   id="stop130" />
				</linearGradient>
				<path
   style="fill:url(#SVGID_00000179630952176261761270000015147053113954747574_)"
   d="m 580.193,97.871 c -0.095,10.574 -5.8,14.564 -8.849,15.929 -0.275,-1.82 -0.826,-4.213 -1.895,-6.128 l 10.69,-11.23 c 0.043,0.424 0.054,0.9 0.054,1.429 z"
   id="path130" />
				
					<linearGradient
   id="SVGID_00000072271790614956168920000004980530335597046912_"
   gradientUnits="userSpaceOnUse"
   x1="565.99323"
   y1="92.290298"
   x2="628.71002"
   y2="23.9335"
   gradientTransform="matrix(0.9995,0.033,-0.033,0.9995,4.5652,-17.4918)">
					<stop
   offset="4.100000e-07"
   style="stop-color:#F0C9CF"
   id="stop131" />
					<stop
   offset="1"
   style="stop-color:#D683A7"
   id="stop132" />
				</linearGradient>
				<path
   style="fill:url(#SVGID_00000072271790614956168920000004980530335597046912_)"
   d="m 554.134,82.931 c -1.048,3.745 1.883,8.826 1.747,10.668 -0.305,4.133 2.038,18.301 11.647,17.529 9.609,-0.772 13.53,-13.156 14.142,-15.151 2.048,2.839 5.457,2.616 6.669,-1.039 1.212,-3.655 -2.359,-6.125 -4.104,-5.427 -1.745,0.698 -2.183,3.791 -2.72,3.522 -0.537,-0.27 -0.032,-2.857 -0.032,-2.857 0,0 -15.714,2.406 -27.349,-7.245 z"
   id="path132" />
				<path
   style="fill:#192458"
   d="m 575.822,169.42 -15.426,-1.251 c -0.972,0 -1.87,-0.829 -2.005,-1.852 l -5.422,-33.467 c -0.136,-1.023 1.467,-2.219 2.438,-2.219 h 15.882 c 0.972,0 1.87,0.829 2.005,1.852 l 4.497,33.834 c 0.136,1.023 -0.997,3.103 -1.969,3.103 z"
   id="path133" />
				<path
   style="fill:#2b377c"
   d="m 575.37,169.42 h -15.882 c -0.972,0 -1.869,-0.829 -2.005,-1.852 l -4.497,-33.834 c -0.136,-1.023 0.541,-1.852 1.513,-1.852 h 15.882 c 0.972,0 1.87,0.829 2.006,1.852 l 4.497,33.834 c 0.135,1.023 -0.542,1.852 -1.514,1.852 z"
   id="path134" />
				
					<linearGradient
   id="SVGID_00000034796596784925874840000008882138354639814557_"
   gradientUnits="userSpaceOnUse"
   x1="544.37097"
   y1="171.53439"
   x2="561.72192"
   y2="142.43829">
					<stop
   offset="4.100000e-07"
   style="stop-color:#F0C9CF"
   id="stop134" />
					<stop
   offset="1"
   style="stop-color:#D683A7"
   id="stop135" />
				</linearGradient>
				<path
   style="fill:url(#SVGID_00000034796596784925874840000008882138354639814557_)"
   d="m 553.349,150.883 c 0.701,-2.553 -0.35,-6.256 1.051,-5.205 1.401,1.051 2.102,3.854 2.102,3.854 0,0 7.808,1.702 11.962,0.501 -0.015,1.549 -2.302,2.903 -7.558,2.302 2.252,2.152 8.303,-0.483 8.909,0.751 0.606,1.234 -0.601,5.305 -4.605,5.506 -4.004,0.2 -7.858,-1.351 -7.858,-1.351 0,0 -8.125,28.729 -14.398,31.265 -6.273,2.536 -13.48,-2.936 -12.279,-9.61 1.201,-6.673 6.139,-21.088 6.139,-21.088 l 6.807,3.937 z"
   id="path135" />
				
					<linearGradient
   id="SVGID_00000104681553830035022290000003975864834235432357_"
   gradientUnits="userSpaceOnUse"
   x1="604.78271"
   y1="150.7106"
   x2="740.51947"
   y2="16.1749">
					<stop
   offset="4.100000e-07"
   style="stop-color:#F0C9CF"
   id="stop136" />
					<stop
   offset="1"
   style="stop-color:#D683A7"
   id="stop137" />
				</linearGradient>
				<path
   style="fill:url(#SVGID_00000104681553830035022290000003975864834235432357_)"
   d="m 605.452,152.634 1.602,9.109 c 0,0 -19.467,-12.012 -22.446,-13.314 -2.979,-1.302 -8.435,-3.804 -9.135,-4.755 -0.701,-0.951 -1.251,1.552 0.701,4.054 -2.002,1.652 -4.304,3.704 -8.409,3.904 -4.104,0.2 -5.355,-0.851 -5.656,0.1 -0.3,0.951 3.103,3.203 10.961,1.852 -3.754,1.652 -9.91,0.601 -9.66,1.602 0.25,1.001 0.45,3.404 6.456,4.254 6.006,0.851 10.561,-3.604 10.561,-3.604 l 23.674,22.551 c 3.452,3.288 8.685,3.843 12.75,1.352 v 0 c 3.384,-2.074 5.312,-5.877 4.986,-9.832 l -1.169,-14.171 c -10e-4,0.001 -2.542,-3.538 -15.216,-3.102 z"
   id="path137" />
				
					<line
   style="fill:none;stroke:#c85e8b;stroke-width:0.3819;stroke-linecap:round;stroke-miterlimit:9"
   x1="607.05298"
   y1="161.743"
   x2="612.95898"
   y2="165.147"
   id="line137" />
				
					<line
   style="fill:none;stroke:#c85e8b;stroke-width:0.3819;stroke-linecap:round;stroke-miterlimit:9"
   x1="543.62299"
   y1="161.743"
   x2="536.98297"
   y2="171.55299"
   id="line138" />
				<circle
   style="fill:#141e43"
   cx="556.87799"
   cy="136.75999"
   r="1.3430001"
   id="circle138" />
				<circle
   style="fill:#4f66c7"
   cx="560.375"
   cy="136.75999"
   r="0.671"
   id="circle139" />
				<path
   style="fill:none;stroke:#c85e8b;stroke-width:0.3819;stroke-linecap:round;stroke-miterlimit:9"
   d="m 585.999,91.639 c -1.268,0.033 -2.776,1.844 -2.156,3.692"
   id="path139" />
				<path
   style="fill:none;stroke:#c85e8b;stroke-width:0.3819;stroke-linecap:round;stroke-miterlimit:9"
   d="m 562.659,95.026 -0.59,5.167 c -0.145,1.274 0.752,2.432 2.022,2.608 l 1.32,0.183"
   id="path140" />
				<path
   style="fill:none;stroke:#c85e8b;stroke-width:0.3819;stroke-linecap:round;stroke-miterlimit:9"
   d="m 565.812,105.547 c 0,0 2.753,0.4 4.404,-1.752"
   id="path141" />
				<path
   style="fill:#441c3a"
   d="m 569.131,96.127 c 0,0.507 -0.411,0.917 -0.917,0.917 -0.507,0 -0.917,-0.411 -0.917,-0.917 0,-0.506 0.411,-0.917 0.917,-0.917 0.507,0 0.917,0.411 0.917,0.917 z"
   id="path142" />
				<path
   style="fill:#441c3a"
   d="m 559.955,97.962 c 0,0.507 -0.411,0.917 -0.917,0.917 -0.506,0 -0.917,-0.411 -0.917,-0.917 0,-0.507 0.411,-0.917 0.917,-0.917 0.506,0 0.917,0.41 0.917,0.917 z"
   id="path143" />
				<path
   style="fill:none;stroke:#441c3a;stroke-width:0.5617;stroke-linecap:round;stroke-miterlimit:10"
   d="m 556.252,94.35 c 0,0 0.626,-2.027 4.004,-0.676"
   id="path144" />
				<path
   style="fill:none;stroke:#441c3a;stroke-width:0.5617;stroke-linecap:round;stroke-miterlimit:10"
   d="m 565.545,93.485 c 0,0 1.359,-3.18 5.701,-1.012"
   id="path145" />
			</g>
		</g>
	</g>
</g></g></g></svg>
